<svg xmlns="http://www.w3.org/2000/svg" data-name="Layer 1" viewBox="0 0 400 500" x="0px" y="0px"><title>stark</title><path d="M167.74,126.29c-5.79,4.34-9.12,13.45-10.18,16.81,12.54-.13,26.1-.57,27.49-1.16l.15,0a13.86,13.86,0,0,1,1.63-2A53.79,53.79,0,0,1,167.74,126.29Z"/><path d="M68.54,228.74a8.56,8.56,0,0,1,5,2.13c9.67-7.18,7.59-20.44,15.78-28.16l-2.14-.18c-6.17,2.7-13.39,3.35-19.11,6.94a39.09,39.09,0,0,0-10.93,11l.07.11c-3.74,3.83-8.25,9.56-7.76,15.3C56,230.86,63.18,228.12,68.54,228.74Z"/><path d="M80.13,239c5.82-9.81,27.69-17.88,30.8-19a22.77,22.77,0,0,1,3.63-5.07h0c3.38-3.64,3.28-8.9,4-13.51-7.76,3.2-18.08,2-26.24,1.47-4.76,3-5.9,8.79-7.46,13.72-1.89,6-4.78,11.78-9.87,15.67l.37.36c-5.67,1.55-10.6,4.77-11.43,11.11A14.65,14.65,0,0,1,80.13,239Z"/><path d="M118.8,151.63c-5.8,6.89-10.63,16-12.32,19.34,8,.55,19.33.6,22-1.35a28.19,28.19,0,0,1,9.5-12.13,67.51,67.51,0,0,1-11.19-.53,41.76,41.76,0,0,0,7.38-10.55A14.9,14.9,0,0,0,118.8,151.63Z"/><path d="M87.8,254.21c1.88-1.15,10-6.05,14.61-7.82,1.25-6.16,3.64-16.16,7.18-23.74C103.42,225,86.87,232,82,239.76l.33.14c-5.49,5.37-12.16,13.18-12.56,21.25C76.64,255.61,83.5,253,87.8,254.21Z"/><path d="M159.89,132.65a36.7,36.7,0,0,1-14.62-1.87c-7.52,6.61-8.26,16.89-14.41,24.59a69.66,69.66,0,0,0,10.71-.16l.07,0,0,0c7.92-.75,17.61-3.2,23-10.19-3.26.05-6.52.08-9.79.11A48.61,48.61,0,0,1,159.89,132.65Z"/><path d="M93.69,166.82,74.19,189.3l22.24-.44c3.52-5.61,7-11.92,9.12-16l-2.15-.17c1.2-2.57,2.52-5.09,3.91-7.57A34.53,34.53,0,0,1,93.69,166.82Z"/><path d="M140.86,266.34c12.62-6.31,21.6-16.61,20.28-31.19-13.29,7.82-32.81,9.57-37.33,27,0,.38.11.76.16,1.15l-.27.09a16,16,0,0,1-2.57,5.09h0c-3.14,5.57-2.55,15.4-2.06,20C125.26,280.39,131.56,271,140.86,266.34Z"/><path d="M159.22,265.08a68.51,68.51,0,0,1,.47-12.23c-5.86,8.65-14.6,12.14-22.52,18.23a64.57,64.57,0,0,0-13.67,15.21c-1.69,9.4-1.46,28.11,9,33-1.1-11.78,1.38-22.92,10.06-31.06C149.19,282.06,156.59,273.91,159.22,265.08Z"/><path d="M160.47,310.67c6.63-8.61,14.82-16.54,18.74-26.88a48.33,48.33,0,0,0,1.14-29.26c-5.13,6.29-8.15,10.1-8.54,18.38-.2,4.28-.27,7.6,2.6,10.88-3.59-1-6.62-2.35-9.33-5.11-9.32-1.85-20,19.09-21.66,26.11-2,8.44-2.07,37.71,13,36.06C151.61,330,153.2,320.09,160.47,310.67Z"/><path d="M104.66,260.66a58.41,58.41,0,0,1,7.26-10.75q-5.34,2-10.78,3.68c.24-1.62.51-3.23.81-4.84-12.48,5.5-29.12,16.83-23,33A24.91,24.91,0,0,1,91.78,272l0-.18C91.82,271.83,99.16,270.52,104.66,260.66Z"/><path d="M119.41,267.47h0a13.45,13.45,0,0,0,2.38-4.75,2.09,2.09,0,0,1,0-.56c-.28-2.34-1-11.12,1.94-17.05-1.77.8-3.59,1.57-5.4,2.31v0c-9.89,4.57-11.57,17.86-20.51,23.8a14,14,0,0,1,6.16,1.87C109,273.48,116.62,272.43,119.41,267.47Z"/><path d="M106,275.21c-.52,0-1.07,0-1.62-.07-4,9.54-4.24,21.18-1.87,31.14,1.14,4.77,4.94,17.08,12.27,14.27-2.87-9.94-3.21-20.74,2.58-29.69-.31-2-1.57-11.62.35-19.07A19.26,19.26,0,0,1,106,275.21Z"/><path d="M178.24,320.92l-.1-.58c-1.21-1.54-8.39-10.95-8.33-18-6.37,7.82-15.9,17.19-14.3,28.3,9.34,1.32,16.92,7.39,19.07,15.2a18.18,18.18,0,0,0,4-24.89Z"/><path d="M143.71,290l.92,6.26c3.35-5.76,11.5-18.47,18.75-19.53a21,21,0,0,1-3.52-7.68C155.6,278.3,145.8,288,143.71,290Z"/><path d="M92.23,200.68l.08.23c11,.66,24.07.45,26.64-1.93a32.65,32.65,0,0,1,6.7-14.51c-3.68.23-7.34.22-11,.18,5.74-2.87,10-6.33,12.79-12.43-6.22,1.77-13.31,1.2-19.69.83-2,3.91-10.76,20.42-17,27l.22.16a4.62,4.62,0,0,1-.63.6l1.47.1C92,200.76,92.19,200.7,92.23,200.68Z"/><path d="M167.18,145a22.66,22.66,0,0,1-5.3,5.56l.14.14c-.05.05-5.24,5.68-5.44,22.35,3.61-.07,16.14-.69,22.62-5.75.23-5.78,1.14-16.18,4.7-23.14C181.38,144.49,176.54,144.78,167.18,145Z"/><path d="M177.28,255.12c7.56-9.18,14.45-19.39,11.95-31.91-8,5.63-15,7.18-19.37,16.86a22,22,0,0,1-4-8.38A22.19,22.19,0,0,1,163,234c.51,4.4-.16,8.63-.69,13h0c-1.81,10.84-3.68,26.79,7.72,33.14C168.23,270,171,262.69,177.28,255.12Z"/><path d="M209.22,144.55a60.7,60.7,0,0,1-20.35-3.81c-7,5.8-7.67,24.16-7.73,29.34,17.8-6,24.8-11.33,26.17-12.47A44.21,44.21,0,0,1,209.22,144.55Z"/><path d="M142.93,206.91c8.44-.41,18.54-1.44,25.15-7.27,7.63-6.71,11.23-17.57,12.65-27.31l-1.56.52q0-1.54,0-3.09c-7.7,5-20.45,5.25-23.1,5.26a15.36,15.36,0,0,1-3.69,3.11C147.74,187.28,150.18,198.94,142.93,206.91Z"/><path d="M193,216.27c4.91-8.38,4.38-18.23,4.07-21.28-6.28,4.27-15.58,8-23.21,10.72-.07,2.79-.7,16.2-6.11,23.77-.32,1.87.85,4.62,1.86,6.48C175,226.07,187.58,225.56,193,216.27Z"/><path d="M200.74,189.17c6.69-8.36,6.53-24.36,6.34-28.87-3.06,2.16-10.25,6.47-24.22,11.31-1.74,13.24-7.18,24.6-14.62,30.51a13.72,13.72,0,0,1-3.22,4.37C174.44,203.59,194.75,196.66,200.74,189.17Z"/><path d="M123.53,257.4c7.16-14.55,22.68-16.1,35.62-23.44,10.07-5.71,12.21-16.72,12.7-27.55-5,1.67-10,3.12-15,4.48,2.3-2.15,5-4,7.17-6.21-6.07,2.81-14,3.79-19.12,4.14-2,13.44-4.35,27.86-17.41,34.51C124.09,246.45,123.48,252.86,123.53,257.4Z"/><path d="M140,206.8c8.2-5.29,6.4-19.15,9.48-27.17-6.21,2.82-14.55,4.07-21,4.62l0,0c-.06.05-5.55,4.92-7.68,15.24l.11.07a2.14,2.14,0,0,1-.19.26c-.9,4.57-.65,9.23-2.76,13.5C122.64,211.48,131.58,208.12,140,206.8Z"/><path d="M158.39,152.73a44.34,44.34,0,0,1-16.34,4.5c-10.51,6-11.21,18.13-20,25.4,7.68-.28,26.59-1.7,32.49-9C154.63,162.78,156.69,156.26,158.39,152.73Z"/><path d="M115.86,216.48c-7,7.14-11.14,28.19-12.22,34.2,9.38-3.12,22.19-6.28,29.51-13.25,6.89-6.57,8.33-19.53,9.7-28.5C133.48,209.34,124.39,212.66,115.86,216.48Z"/><path d="M76.17,181.55c-14.82,1.72-17.25,22.84-22.56,33.29L56,218.66a36,36,0,0,1,20.39-14.54c9.3-2.71,13.34-4.92,18.77-13.24l-25.4.51,8.51-9.82A14,14,0,0,0,76.17,181.55Z"/><path d="M316.09,203a5.47,5.47,0,0,0,2.39-9.36,7.59,7.59,0,0,1-7.18,5.29A34.37,34.37,0,0,1,316.09,203Z"/><path d="M218.25,154.75c3.48-2.69,4.4-5.81,4.27-10.19a99.41,99.41,0,0,1-11.43.79c-1.61,6-3.64,14.49.66,20C212.21,159.43,215.53,156.86,218.25,154.75Z"/><path d="M57.8,198.33c2.34-5.88,5.58-11.8,10.75-15.65-14.31,3-29.85,8.48-43.55-.26a10.92,10.92,0,0,0,2,10.65C28.48,194.1,45,205.26,57.8,198.33Z"/><path d="M60.07,182.53H61c5.44-1.6,13.18-4.25,18.82-2.74l11.4-13.14a88,88,0,0,1-18.64-4c-9.47,6.7-26.92,6.75-36.34,0C30.24,176.19,50.57,182.53,60.07,182.53Z"/><path d="M134.38,123.8c7.81,4.49,17.79,8.25,26.89,6.64a23.36,23.36,0,0,1,5.17-5.67,54.59,54.59,0,0,1-4.5-6.19c-9.28,5.29-23.95,5.27-32.54-1.54C129.6,119.52,131.35,121.9,134.38,123.8Z"/><path d="M72.72,160.63c10.64,3.56,25.9,7.36,36.31,1.55,5.6-9.39,13.33-21.07,26-17.61,2.17-5.57,3.6-10.26,8.1-14.53a60.9,60.9,0,0,1-8.95-4.07c-7.49,10.1-25.49,10.3-35.51,4.48-1.34,8,8.65,12,14.71,13.25-13.26,11.19-38.51,14.5-52.83,3C58.47,153.89,67.34,158.69,72.72,160.63Z"/><path d="M317.39,164.43a9.42,9.42,0,0,0-6.32,1.14,2.07,2.07,0,0,1-.15,1.2,7.87,7.87,0,0,1,5.31,7.71,5.81,5.81,0,0,0,4.15-8.81A6.9,6.9,0,0,0,317.39,164.43Z"/><path d="M307.23,166.56c-.07-2-.46-4.77-2-6.08l-2.56-.69c-2.56.33-4.69,2.85-6.52,3.75a7.11,7.11,0,0,0,5.56,9.62A9.05,9.05,0,0,1,307.23,166.56Z"/><path d="M50.92,215.6a25,25,0,0,0,1.41-2.84l0,.07c1.76-3.81,3-7.86,4.4-11.8-10.14,4.16-22.22-.27-30.74-6.2A30.42,30.42,0,0,0,14.83,198c12.12-1.73,39.89,7.29,28,24.34A18.59,18.59,0,0,0,50.92,215.6Z"/><path d="M335.5,170.71c-1.71-.3-3.28-.62-4.39-.86a15.3,15.3,0,0,1-2.53,1.56,8.31,8.31,0,0,1-2.1,6A6.31,6.31,0,0,0,335.5,170.71Z"/><path d="M292.58,161.4c-1.15-2.77-3.62-3-6.07-2.63-8.91,4.28-3.47,15.16,5.06,15.36a12.86,12.86,0,0,1,1.33-12A6.6,6.6,0,0,1,292.58,161.4Z"/><path d="M344.58,171.14a13.82,13.82,0,0,1-5.21.12,10.25,10.25,0,0,1-4.93,11.33c6.86,2.81,13.86-4.81,10.3-11.4Z"/><path d="M302.2,133.8c2.77-2.51,5.54-5.41,6.3-6.76-4.17,1.39-10.45-.73-14.41-2.17L288,125C292.2,128.67,298.57,129.76,302.2,133.8Z"/><path d="M291.69,186.4a4.55,4.55,0,0,0,.55-6.28,6.51,6.51,0,0,1-4,4A29.61,29.61,0,0,0,291.69,186.4Z"/><path d="M309.05,197.2l.52.38a6.31,6.31,0,0,0,1.28-9.89,8.28,8.28,0,0,1-6,6.6c1.55,1,2.95,2,4.23,2.91Z"/><path d="M300.14,182.32a7.69,7.69,0,0,1-4.16,6.52c1.37.82,2.93,1.74,4.57,2.75A5.75,5.75,0,0,0,300.14,182.32Z"/><path d="M367.16,151.66c-2.28-3.93-4.45-7.92-6.73-11.85-1.51-2.59-4.14-8.58-7.24-9.68h-.83v-.5c-7.61-5.46-17.85-7-27-6-5.4-10.06-23.5-14.53-23.5-14.53A31.93,31.93,0,0,0,280,100.26c-12.92-13-36.45-12-53.17-10.23v-.1q-3.71.1-7.86.35a23.25,23.25,0,0,1-24.41-4.2,16.74,16.74,0,0,0,3.79,11.27c-4.5,2.63-10.26,2.24-13.81-1.84-1.6,10.38,10.6,10.2,17.26,9.9,2.28-.11,12.57-.07,13.21-3.89-1.43,0-15.55,1.34-13.93-2.65,1.08-2.67,11.87-3.73,14.41-4,5.89-.56,13.81.29,19.11,3.13a15,15,0,0,0-1.51-3c3.33,1.4,4.71,4.9,5,5.31a35.93,35.93,0,0,0-8.25-1.51l-1-.64c-8.08-2.34-15.85-1.44-23.75,1,3.49.24,16.23-.87,10.22,5-3.93,3.86-13.44,3.24-18.22,3.16-15.17-.26-31-7.89-40.16-20-2.35,18.16,7,36.1,21.87,46.33a56.55,56.55,0,0,0,30.31,9.6c2.51.09,27.74-3.08,27.29-4.21.45,1.14-11,3.74-11.91,3.93.4,4.66-.36,8.87-3.73,12.22-4.59,4.56-7.34,6.67-6.92,13.82a9,9,0,0,1-4.64-4.18c-.19,10.08-1.81,22.14-10.32,28.73l.12,0c1.54,9.51-.71,22.22-8.47,28.56l.55-.15c3,11.08-2.46,22.07-9.16,30.52,5.62,16.73.37,34-10.2,47.36l.5.19c-1.61,4.25,2.4,11.58,5.54,16.18-.62-14.84,6.94-29.86,14.44-42.17a178.42,178.42,0,0,1,39-44.78c11.4-9.35,25-18.69,39.86-21.31,6-1.05,12.69-.89,17.67,3.06,7.5,5.93,7.18,16.92,5.41,25.38,18.12,5.31,33.11-16.56,21.14-31.46h-.12c-6.07-6.8-15.84-11.39-23.44-16.3l-.07,0c-10.39-5.46-21.18-17.53-10.39-28.7a2.2,2.2,0,0,1-.7,0l-4.93,7.51c.28-5.25,3.7-9.14,6.15-11.28a55.68,55.68,0,0,0-7.18,4.14,37.09,37.09,0,0,0,2,18.91c-3.68-4.26-6.11-10.76-5.3-16.4-4.27,3.59-10.71,10.55-9,16.81-6.7-8.71,7.87-21.6,14.22-25.31,9.57-5.59,23-9.12,33.75-4.88a52.54,52.54,0,0,0-14.5,1.57c5.71.56,11.36,2.63,16.74,4.51,6,2.11,14.67,3.87,19.36,8.25a8.29,8.29,0,0,1,3.74,2.5,22.51,22.51,0,0,1,8,2.29c12.34,3.82,17.69-8.34,23.84-16.76ZM217.64,136.8c-6.48,3.37-13.47-.39-13.47-.39,1.85-.09,3.89-.68,2.69-2.24-.78-1-8.32-1-9.66-1.39a34.68,34.68,0,0,1-14.92-8.67c4.68,1.14,2.65-1.64.72-3.08-5.15-3.84-10.24-7-14.83-11.68,0,0,11.78,5.82,15.8,5.44a21.08,21.08,0,0,1-7.77-.39s11.14,10,31.21,9.45c0,0-13.6,4-15.67,2.85,7,4.38,15.63,6,23.76,5.63,6.16-.25,12.71-1.45,18.84-.32C234.34,132,224.11,133.43,217.64,136.8Zm60.56,49.61a214.62,214.62,0,0,1,25.66,20.93A200.47,200.47,0,0,1,269,180.26C272.16,182.19,275.2,184.27,278.2,186.41Zm-45.33-91.8a5.59,5.59,0,0,0-2.77-1.88s14.18,4.83,18.18,4.83c3.35-3.55,7-2.31,11-1,1.07.34,10.53,3.3,6.63-.7.73.31,5.52,2.5,4.71,4.27-.71,1.55-5.87-.61-6.8-.9-4.45-1.39-8.45-3.23-12.21.73C247.69,100,234,95,232.87,94.61Zm-.74,60.18a5.81,5.81,0,0,1-2.74-.66c5.21-1.21,6.12-8.55,1.39-11C239,141.21,240.7,154.79,232.13,154.79Zm5.5-52.32,2-.33-.18-3c4.13,1.29,8.65,2.92,13,2.8,3.52-4.16,7.17-1.87,11.57-.55,1.83.56,5.38,2.09,7.25.81,2.31-1.58,1.05-4.41-.7-5.9a27.28,27.28,0,0,1,8.47,6,29.83,29.83,0,0,1,21.75,8.64c7.91,1.94,18,5.76,22.4,13-3.51.56-6.87,1.48-10.42,1.83-.61-11.45-19.28-12.6-27.49-13.21a70.27,70.27,0,0,0-29.22,3.85C249.31,113,243.61,107.09,237.63,102.47Zm104,55.6c-5.54-2.79-7.1-8.11-11-12.4-4.25-4.68-10.48-5-16.42-4.31,8.83-3.05,15.8-.48,20.77,7.13,4.53,6.92,9.82,10.62,18.22,11.77A21.4,21.4,0,0,1,341.63,158.07Zm12.44-10.45c-2-13.11-21.14-14.38-31.05-11.68C331.86,130.8,355.94,132.64,354.07,147.62Zm-18-19.38c-14.92,1-25.46,15.53-40.78,13.64-.45.8-10.87.63-12.82,1.23a33.57,33.57,0,0,0-9.92,5c-5.6,4.11-10.46,9.55-15.22,14.59,1.81-2.56,2.44-7.73,2.44-7.73l-3.5,2.67c-3.65-12.3,3.86-29.95,17.84-30.52l-3-2.15c3.88-2.55,7.75-3.73,12.3-1.87l9-.16c-8.32-3-16.66-4-25.37-2a40.85,40.85,0,0,1,20.07-.54c6.28,1.46,12.11,4.24,18.67,4.24.3-1.48.29-4.25-2.71-6.81,6.23,2.43,7.63,5.77,7.73,8.08a24.44,24.44,0,0,1-1.42,3c-1.83,3-4.93,5.53-7.57,7.84-2.3-4.29-8.18-5.26-12-7.85-12.34-2.39-5.81,7.4.49,10.79,12.55,3.31,20.79-4.31,31.31-9.38,11-5.29,22.52-4.37,33,1.75C348.76,129.54,342.4,127.86,336.09,128.24Z"/><text x="0" y="415" fill="#000000" font-size="5px" font-weight="bold" font-family="'Helvetica Neue', Helvetica, Arial-Unicode, Arial, Sans-serif">Created by Luis Herrera</text><text x="0" y="420" fill="#000000" font-size="5px" font-weight="bold" font-family="'Helvetica Neue', Helvetica, Arial-Unicode, Arial, Sans-serif">from the Noun Project</text></svg>