<svg xmlns="http://www.w3.org/2000/svg" data-name="Layer 1" viewBox="0 0 400 500" x="0px" y="0px"><title>baratheon</title><path d="M175,98.42C164.19,100.87,158.49,109,149.33,114c-5.87,3.24-12.55,4.33-19.07,5.48.92,15.78,24.91,9.3,35,8.21,9.49-1,11.86-6.26,14.4-14.47l4.77-15.56A31.11,31.11,0,0,0,175,98.42ZM164.4,112.35l9.38-5.76S172.86,113.75,164.4,112.35Z"/><path d="M318.53,27.71c1.14,9.19-9,16.9-17,10.53,4.15,5.08,9.18,11.38,4.88,17.92-3.29,5-10.54,6.51-15.3,2.55,8.34,9.85,2,22.05-9.34,25.67-4.32-7.77-4.06-21.34,6.31-24.48A20.29,20.29,0,0,0,273,87.44a57.79,57.79,0,0,1-12.11-.89c19.42-21.47,15.44-56.49-8.48-72.9,6.53,6.58,3.18,18.9-7,18.69,6.3,1.47,14,3.36,14.82,11,.61,6-4.38,11.8-10.58,11.56,12.6,2.71,15,16.18,8.28,26-8.19-3.55-16.32-14.33-10-23.24a20.09,20.09,0,0,0-1.87,24.8c-2.86-1-5.7-2-8.59-2.94.61-5.19,1.48-10.39,2.57-15.54-2,4.81-3.71,9.72-5.24,14.74a56.89,56.89,0,0,0-6.77-1.5c.79-12.72-.68-31.29-13.77-37.89,11.51,8,10.45,25.44,8,37.38a61.91,61.91,0,0,0-12,1.16c-2.79-9.11-8.19-17.91-16-23.61C201,60.72,205,69.68,206.47,78.67A98.69,98.69,0,0,0,185.05,86c-10.78-5-21.28-13.68-22.35-26.46-.95,12.77,8.16,24,18.19,30.76-11.1-.09-33.51-8.17-34-22-.79,11.25,13.78,19.4,22.27,23.74,9.15,4.68,21.89,2.23,32,2.84,9.73.59,19.18,2.24,28.83,3.39,9.49,1.13,21.7.39,27.65-8.26a56.75,56.75,0,0,0,17.52,1.31h0C306.23,89.32,328.16,57.47,318.53,27.71ZM183.64,89.8l.25.5h-.51Zm1.61.52a94.49,94.49,0,0,1,21.67-7.65,42.1,42.1,0,0,1-.16,8.69C199.6,90.78,192.42,90.46,185.25,90.32Zm37.79,3c-3.47-.61-7-1-10.49-1.38a60.19,60.19,0,0,0-1.22-10.09,49.76,49.76,0,0,1,22.41.8,56.34,56.34,0,0,0-2.17,12C228.71,94.29,225.88,93.75,223,93.27Zm29.55-3.19c-4.17,3.67-10.06,4.73-15.43,4.78a48.48,48.48,0,0,1,0-11.23c5.25,1.72,11.56,3,16.44,5.52A12.07,12.07,0,0,1,252.59,90.08Z"/><path d="M164.89,99c1.7,0,8.63-3.18,4.08-5.53a6.86,6.86,0,0,1-10.12-4.33A6.84,6.84,0,0,0,164.89,99Z"/><path d="M104,186.2l7.4,7.4V184c-2.59-3.71-4.9-8.11-8-11.43-3.67-4-6.54-1.91-9.51,1.26-6.35,6.77-12.39,13.85-18.57,20.77-8.4,1.62-11.49,10.49-16.7,16.22,3.54,1.06,10.45,2.41,12.84-1.44,1.51-2.42,0-3,2.34-5s4.28-1.28,4.25-5.3C83.8,193.46,95,177.19,104,186.2Z"/><path d="M199.55,298.76l-.16-.12a98.65,98.65,0,0,1-2-31.78,52.92,52.92,0,0,1-13.73-8.19c-6.24,11.24-4.95,27.39,4.48,36.55,1.52,6.76-.86,8.95-7.18,9.56-6.92.66-13.87,1.22-20.78,2-3.81.42-15.73,5.66-12.83,8.62.91.93,6.17,2.66,7.63,2.45,4.25-.61,5.24-5.3,9.71-1.08,1.26-3.15,6.63-1.6,7.2-5l21.83-1.08c2.14-.11,6.1.38,7.54-1.67C203,306.57,200.3,301.27,199.55,298.76Z"/><path d="M249.25,269.07c-.59-5.24-3.6-8.78-5.95-13.15-2.44-4.53-4.17-9-7.37-13.12A96.86,96.86,0,0,0,213.13,222c-8.59-5.8-17.47-9.77-24.88-17.27-6.59-6.68-12.84-15.29-14-24.87l10.24-10.62c2.8,2.69,7.52-.89,5.51-4.33s-7.66-1.05-6.42,2.85l-7.55,2.34c13.1-11.67,26.92-39.17,16.52-56.29,4.11.45,8.6-.34,11.89-3-2.27-8.92-16.73-9.12-22.51-4.31a6.57,6.57,0,0,0,.39,1.13,12.11,12.11,0,0,1,9.58,6,13.25,13.25,0,0,1-8-4.33c-1.38,4.51-2.33,10.25-4.88,14.28-4,6.41-11.12,6.39-17.81,7-5.52,7.65-14,11.09-20,18.37l-1.34-5.68c3.92-.88,3.29-7-.78-7-3.81,0-4.81,5.51-1.24,6.85l-4.66,13,2.14,1.27c-.5.85-1,1.71-1.43,2.58a7.07,7.07,0,0,0-11.06,2.75,7.17,7.17,0,0,1,5.58-.75,29.47,29.47,0,0,0-9.5,11.63,7.07,7.07,0,0,0-5.07,10.67c.18-2.52,1.53-3.66,3.21-5.33a28.21,28.21,0,0,0-.71,4.55c-3.37,1.12-3.12,7.05-1.72,9.29a6.41,6.41,0,0,1,1.72-4,26.86,26.86,0,0,0,.48,3.34c-1.2,1.2-.7,4.39-.14,5.72a3,3,0,0,0,.62.2,6.68,6.68,0,0,1,.53-1.56c.21.67.43,1.34.66,2,2.74,1.37,6.68,2.06,9.66,2.46.25-4.34,2-9.67,6.36-11.61a15.47,15.47,0,0,0-5.29,12.85,43.72,43.72,0,0,1-15.53-4.74c-4.83-2.4-11.69-9.19-17.32-5.13-4.74,3.43-2.21,11-1.87,15.83a198.69,198.69,0,0,1-.13,27.28l1.93,1.13s0,3.85,1,4c-.33,5.57,1.61,9.51,5.8,3.46,1.65-2.39,2.12-3.66,1.09-6.16-1.11-2.71-5.31-4.87,0-6.61-2.59-4.34-5.77-29.18-.71-30.62,3.41-1,11.78,6.32,14.81,8.31,6.18,4.06,12.38,9.19,19,12.46,9.81,4.85,8.86-7.49,9-13.51.72,7,1.33,20-9.83,14.28-5-2.56-9.71-6.21-14.48-9.2q1.6,6.89,3.2,13.78c2.37-6.12,9,5.26,10.18,6.84,2.23-5.4,9.22,3.3,11.08,5l.42-4.31a123.44,123.44,0,0,0,38.7,20.58c9.52,7.34,20.68,13.44,32.31,16.63a59.56,59.56,0,0,1-18.86-4.06c1.39,19,8.08,47.16,25.67,58.08.11,8.49.3,17,.34,25.48,0,5.59-.52,10.85-3.55,15.8-2.78,4.54-5.34,6.73-7.09,11.83,4.79.09,9.51.92,8.9-5.48,5.22.07,7.43-1.79,7.61-7,.22-6.11-.71-11.51.6-17.67,1.55-7.31,3.56-14.55,5.33-21.81-16.69-13.14-13.57-49.39,7.34-57-.23-.9-.45-1.77-.71-2.64a10.94,10.94,0,0,0,.6-1.54c.31,3-2.79,16.43,1.7,17.07,0-2.2,1.79-1.79,1.79-1.79,5.41,5.24,8.9,3.1,9.31,2.8C251.84,285.54,250.26,277.81,249.25,269.07ZM187,165.11a1.55,1.55,0,0,1,0,3.09A1.55,1.55,0,0,1,187,165.11ZM170.7,152.88c4.5,0,4.5,7.09,0,7.09S166.06,152.88,170.7,152.88Zm-15.1-8.41c4.5,0,4.5,7.08,0,7.08S151,144.47,155.6,144.47Zm-16.55-6.19a1.55,1.55,0,0,1,0,3.09A1.55,1.55,0,0,1,139.05,138.28Zm-3.46,17,3-8.44,2.37,10,12-3.74,2.91,12.22,12-3.73,2.92,12.23,9.31-2.89-6.61,6.85Z"/><path d="M155.6,149.55a1.54,1.54,0,0,0,0-3.08A1.54,1.54,0,0,0,155.6,149.55Z"/><path d="M170.7,158a1.55,1.55,0,0,0,0-3.09A1.55,1.55,0,0,0,170.7,158Z"/><text x="0" y="415" fill="#000000" font-size="5px" font-weight="bold" font-family="'Helvetica Neue', Helvetica, Arial-Unicode, Arial, Sans-serif">Created by Luis Herrera</text><text x="0" y="420" fill="#000000" font-size="5px" font-weight="bold" font-family="'Helvetica Neue', Helvetica, Arial-Unicode, Arial, Sans-serif">from the Noun Project</text></svg>